<svg width="1613" height="917" viewBox="0 0 1613 917" fill="none" xmlns="http://www.w3.org/2000/svg">
<path d="M1607.99 2C1607.75 59.7634 1596.99 116.939 1576.3 170.432L1575.29 173.006C1553.7 227.852 1522.05 277.681 1482.17 319.649C1442.28 361.616 1394.93 394.901 1342.83 417.608C1290.73 440.314 1234.89 452 1178.5 452C1122.11 452 1066.27 440.314 1014.17 417.608C962.063 394.901 914.715 361.616 874.827 319.649C834.939 277.681 803.293 227.852 781.701 173.006C760.351 118.775 749.247 60.6911 749 2H1607.99Z" fill="#304FFE" stroke="black" stroke-width="4"/>
<path d="M749.004 905.552C748.769 847.788 759.055 790.526 779.306 736.864L780.289 734.281C801.427 679.258 832.66 629.169 872.199 586.872C911.738 544.577 958.81 510.901 1010.72 487.764C1062.63 464.628 1118.37 452.481 1174.76 452.014C1231.14 451.548 1287.08 462.771 1339.37 485.046C1391.65 507.321 1439.28 540.213 1479.51 581.849C1519.74 623.486 1551.8 673.051 1573.84 727.717C1595.64 781.769 1607.23 839.759 1607.96 898.446L749.004 905.552Z" fill="#304FFE" stroke="black" stroke-width="4"/>
<path d="M2 910.5V2H749.5L2 910.5Z" fill="#D87E67"/>
<path d="M749.5 2L2 910.5V2H749.5Z" stroke="black" stroke-width="4"/>
</svg>
