<svg width="1613" height="917" viewBox="0 0 1613 917" fill="none" xmlns="http://www.w3.org/2000/svg">
<path class="circle1" d ="M1610.83 4C1610.59 61.7634 1599.83 118.939 1579.14 172.432L1578.13 175.006C1556.54 229.852 1524.89 279.681 1485.01 321.649C1445.12 363.616 1397.77 396.901 1345.67 419.608C1293.57 442.314 1237.73 454 1181.34 454C1124.95 454 1069.11 442.314 1017.01 419.608C964.907 396.901 917.559 363.616 877.671 321.649C837.783 279.681 806.137 229.852 784.545 175.006C763.195 120.775 752.091 62.6911 751.844 4H1610.83Z" fill="#304FFE" stroke="black" stroke-width="4"/>
<path d="M749.72 911.546C749.485 853.782 759.771 796.52 780.022 742.858L781.005 740.275C802.143 685.252 833.376 635.163 872.915 592.866C912.454 550.571 959.526 516.895 1011.44 493.758C1063.35 470.622 1119.09 458.475 1175.48 458.008C1231.86 457.542 1287.8 468.765 1340.09 491.04C1392.37 513.315 1440 546.207 1480.23 587.843C1520.46 629.48 1552.52 679.045 1574.56 733.711C1596.36 787.763 1607.95 845.753 1608.68 904.44L749.72 911.546Z" fill="#304FFE" stroke="black" stroke-width="4"/>
<path d="M2 910.5V2H749.5L2 910.5Z" fill="#D87E67"/>
<path d="M749.5 2L2 910.5V2H749.5ZM749.5 2H1603" stroke="black" stroke-width="4"/>
<path d="M225.501 386.32L252.946 428.991L248.47 434.222L219.126 386.504L221.936 383.221L225.501 386.32ZM270.09 408.958L223.692 388.435L220.055 385.419L222.888 382.108L274.566 403.727L270.09 408.958ZM255.093 396.124L259.489 399.886L242.774 419.418L238.378 415.656L255.093 396.124ZM270.881 369.677L263.833 377.913L259.473 374.278L266.021 366.627C267.005 365.476 267.619 364.234 267.861 362.899C268.104 361.564 267.957 360.234 267.421 358.908C266.882 357.547 265.936 356.287 264.582 355.128C263.098 353.858 261.702 353.049 260.394 352.701C259.082 352.318 257.833 352.389 256.644 352.914C255.453 353.405 254.278 354.328 253.119 355.682L247.595 362.137L283.71 393.043L279.329 398.163L238.818 363.494L248.723 351.919C250.215 350.176 251.762 348.8 253.363 347.793C254.946 346.769 256.587 346.166 258.287 345.982C259.984 345.763 261.724 345.983 263.507 346.641C265.29 347.299 267.127 348.437 269.019 350.056C270.688 351.485 271.875 353.159 272.578 355.078C273.278 356.963 273.484 358.939 273.194 361.004C272.905 363.07 272.134 365.078 270.883 367.028L270.881 369.677ZM289.663 386.087L280.972 396.243L279.151 389.527L285.294 382.349C286.437 381.013 287.109 379.628 287.309 378.192C287.509 376.757 287.277 375.338 286.614 373.935C285.948 372.498 284.874 371.144 283.39 369.874C281.887 368.588 280.414 367.681 278.971 367.153C277.527 366.624 276.127 366.551 274.772 366.933C273.416 367.316 272.12 368.23 270.881 369.677L265.238 376.271L260.973 372.525L268.593 363.622L271.127 363.814C272.723 362.288 274.478 361.363 276.392 361.042C278.303 360.685 280.229 360.839 282.168 361.502C284.122 362.146 285.972 363.215 287.715 364.707C290.238 366.866 291.966 369.164 292.9 371.602C293.832 374.006 294.022 376.45 293.47 378.934C292.9 381.403 291.631 383.787 289.663 386.087ZM304.737 320.373L311.776 326.397C314.633 328.841 316.876 331.307 318.507 333.795C320.134 336.249 321.164 338.688 321.595 341.114C322.026 343.539 321.888 345.896 321.183 348.184C320.478 350.473 319.228 352.665 317.435 354.761C315.704 356.783 313.763 358.319 311.611 359.369C309.459 360.42 307.144 360.929 304.665 360.896C302.187 360.864 299.586 360.261 296.863 359.087C294.137 357.879 291.346 356.053 288.489 353.608L281.45 347.584C278.593 345.139 276.367 342.672 274.771 340.181C273.156 337.675 272.141 335.2 271.726 332.756C271.311 330.312 271.456 327.946 272.161 325.657C272.848 323.353 274.057 321.19 275.787 319.168C277.581 317.072 279.563 315.507 281.733 314.472C283.901 313.403 286.209 312.904 288.656 312.973C291.118 313.024 293.705 313.663 296.415 314.89C299.106 316.1 301.88 317.928 304.737 320.373ZM307.442 331.461L300.347 325.389C298.121 323.484 296.052 322.034 294.14 321.04C292.208 320.03 290.423 319.45 288.784 319.301C287.144 319.151 285.631 319.399 284.244 320.043C282.839 320.672 281.54 321.682 280.35 323.073C279.223 324.39 278.457 325.791 278.053 327.277C277.647 328.729 277.636 330.262 278.021 331.877C278.406 333.492 279.231 335.194 280.496 336.983C281.758 338.738 283.502 340.568 285.728 342.472L292.823 348.544C295.067 350.465 297.163 351.921 299.11 352.913C301.054 353.87 302.863 354.422 304.537 354.569C306.208 354.681 307.746 354.423 309.152 353.794C310.539 353.15 311.788 352.178 312.899 350.88C314.09 349.489 314.897 348.058 315.319 346.588C315.739 345.084 315.74 343.542 315.323 341.965C314.904 340.352 314.047 338.687 312.753 336.97C311.457 335.218 309.687 333.381 307.442 331.461ZM311.083 279.05L315.464 273.93L343.984 298.336C347.026 300.939 348.965 303.611 349.801 306.351C350.637 309.091 350.655 311.774 349.855 314.399C349.052 316.989 347.714 319.379 345.841 321.568C343.841 323.905 341.631 325.661 339.212 326.836C336.774 327.995 334.16 328.345 331.372 327.887C328.599 327.41 325.691 325.869 322.649 323.266L294.13 298.86L298.487 293.768L327.007 318.174C329.121 319.984 331.026 321.1 332.721 321.522C334.432 321.926 335.997 321.787 337.416 321.105C338.85 320.405 340.203 319.313 341.473 317.829C342.758 316.327 343.629 314.822 344.083 313.315C344.553 311.789 344.448 310.222 343.769 308.612C343.106 306.984 341.717 305.265 339.602 303.456L311.083 279.05ZM333.299 253.09L373.81 287.759L369.476 292.823L328.965 258.154L333.299 253.09ZM342.418 242.434L346.814 246.196L324.266 272.545L319.869 268.783L342.418 242.434Z" fill="#1F1F1F"/>
<path d="M1019.44 714.45V734.335C1018.85 735.116 1017.96 736.093 1016.76 737.265C1015.59 738.437 1013.94 739.474 1011.82 740.377C1009.7 741.281 1006.91 741.732 1003.47 741.732C1000.71 741.732 998.185 741.269 995.89 740.341C993.619 739.413 991.654 738.021 989.994 736.166C988.358 734.286 987.088 731.955 986.185 729.171C985.282 726.364 984.83 723.08 984.83 719.32V709.323C984.83 705.587 985.208 702.316 985.965 699.508C986.722 696.701 987.845 694.369 989.334 692.514C990.848 690.658 992.716 689.267 994.938 688.339C997.184 687.411 999.796 686.947 1002.77 686.947C1006.22 686.947 1009.15 687.594 1011.56 688.888C1013.98 690.182 1015.85 692.05 1017.17 694.491C1018.51 696.933 1019.27 699.862 1019.44 703.28H1012.7C1012.53 701.083 1012.06 699.203 1011.31 697.641C1010.55 696.054 1009.48 694.845 1008.08 694.015C1006.69 693.161 1004.92 692.733 1002.77 692.733C1000.72 692.733 998.99 693.075 997.574 693.759C996.158 694.442 994.999 695.468 994.095 696.835C993.216 698.202 992.569 699.923 992.154 701.999C991.764 704.074 991.568 706.491 991.568 709.25V719.32C991.568 722.152 991.849 724.618 992.411 726.718C992.972 728.817 993.766 730.551 994.791 731.918C995.841 733.285 997.098 734.311 998.563 734.994C1000.03 735.653 1001.68 735.983 1003.51 735.983C1005.58 735.983 1007.22 735.763 1008.41 735.324C1009.61 734.884 1010.53 734.384 1011.16 733.822C1011.82 733.261 1012.34 732.809 1012.74 732.467V720.163H1002.96V714.45H1019.44ZM1059.02 735.25V741H1035.88V735.25H1059.02ZM1037.09 687.68V741H1030.35V687.68H1037.09ZM1055.91 710.604V716.354H1035.88V710.604H1055.91ZM1058.66 687.68V693.466H1035.88V687.68H1058.66ZM1085.5 687.68V741H1078.84V687.68H1085.5ZM1099.53 687.68V693.466H1064.85V687.68H1099.53ZM1130.18 687.68V741H1123.44V687.68H1130.18ZM1176.76 687.68V741H1169.99L1148.64 699.875V741H1141.9V687.68H1148.64L1170.1 728.915V687.68H1176.76ZM1221.29 687.68V741H1214.63V687.68H1221.29ZM1235.32 687.68V693.466H1200.64V687.68H1235.32ZM1276.85 709.726V718.991C1276.85 722.75 1276.43 726.059 1275.6 728.915C1274.8 731.747 1273.61 734.115 1272.05 736.02C1270.49 737.924 1268.61 739.352 1266.41 740.304C1264.21 741.256 1261.73 741.732 1258.98 741.732C1256.31 741.732 1253.89 741.256 1251.69 740.304C1249.49 739.352 1247.6 737.924 1246.01 736.02C1244.42 734.115 1243.19 731.747 1242.31 728.915C1241.46 726.059 1241.03 722.75 1241.03 718.991V709.726C1241.03 705.966 1241.46 702.67 1242.31 699.838C1243.17 696.981 1244.39 694.601 1245.98 692.697C1247.56 690.792 1249.45 689.364 1251.65 688.412C1253.85 687.436 1256.28 686.947 1258.94 686.947C1261.7 686.947 1264.18 687.436 1266.37 688.412C1268.59 689.364 1270.47 690.792 1272.01 692.697C1273.58 694.601 1274.77 696.981 1275.6 699.838C1276.43 702.67 1276.85 705.966 1276.85 709.726ZM1270.18 718.991V709.652C1270.18 706.723 1269.94 704.208 1269.45 702.108C1268.96 699.984 1268.24 698.251 1267.29 696.908C1266.34 695.565 1265.16 694.577 1263.77 693.942C1262.38 693.283 1260.77 692.953 1258.94 692.953C1257.21 692.953 1255.64 693.283 1254.25 693.942C1252.88 694.577 1251.71 695.565 1250.74 696.908C1249.76 698.251 1249 699.984 1248.47 702.108C1247.95 704.208 1247.7 706.723 1247.7 709.652V718.991C1247.7 721.945 1247.95 724.484 1248.47 726.608C1249 728.708 1249.76 730.441 1250.74 731.808C1251.74 733.151 1252.93 734.152 1254.32 734.811C1255.72 735.446 1257.27 735.763 1258.98 735.763C1260.81 735.763 1262.42 735.446 1263.81 734.811C1265.23 734.152 1266.4 733.151 1267.33 731.808C1268.28 730.441 1268.99 728.708 1269.45 726.608C1269.94 724.484 1270.18 721.945 1270.18 718.991ZM1312.37 687.68H1319.11V725.216C1319.11 729.22 1318.34 732.431 1316.8 734.848C1315.26 737.265 1313.24 739.022 1310.72 740.121C1308.23 741.195 1305.55 741.732 1302.66 741.732C1299.59 741.732 1296.82 741.195 1294.35 740.121C1291.89 739.022 1289.92 737.265 1288.46 734.848C1287.02 732.431 1286.29 729.22 1286.29 725.216V687.68H1293V725.216C1293 728 1293.39 730.172 1294.17 731.735C1294.97 733.297 1296.1 734.396 1297.54 735.031C1299 735.666 1300.71 735.983 1302.66 735.983C1304.64 735.983 1306.35 735.666 1307.79 735.031C1309.26 734.396 1310.38 733.297 1311.16 731.735C1311.97 730.172 1312.37 728 1312.37 725.216V687.68ZM1356.09 724.044H1362.83C1362.66 727.707 1361.92 730.868 1360.6 733.529C1359.31 736.166 1357.41 738.192 1354.92 739.608C1352.46 741.024 1349.37 741.732 1345.66 741.732C1343 741.732 1340.59 741.208 1338.44 740.158C1336.29 739.108 1334.45 737.606 1332.91 735.653C1331.4 733.676 1330.24 731.308 1329.43 728.549C1328.63 725.79 1328.23 722.689 1328.23 719.247V709.396C1328.23 705.978 1328.63 702.89 1329.43 700.131C1330.26 697.372 1331.45 695.016 1332.99 693.063C1334.55 691.085 1336.44 689.572 1338.66 688.522C1340.91 687.472 1343.45 686.947 1346.28 686.947C1349.75 686.947 1352.68 687.643 1355.07 689.035C1357.49 690.402 1359.34 692.416 1360.64 695.077C1361.95 697.714 1362.69 700.949 1362.83 704.782H1356.09C1355.92 701.974 1355.48 699.691 1354.78 697.934C1354.07 696.151 1353.02 694.845 1351.63 694.015C1350.26 693.161 1348.48 692.733 1346.28 692.733C1344.33 692.733 1342.63 693.124 1341.19 693.905C1339.77 694.687 1338.6 695.81 1337.67 697.274C1336.77 698.715 1336.09 700.46 1335.62 702.511C1335.18 704.538 1334.96 706.808 1334.96 709.323V719.247C1334.96 721.591 1335.15 723.776 1335.51 725.802C1335.9 727.829 1336.51 729.611 1337.34 731.149C1338.2 732.663 1339.31 733.847 1340.68 734.701C1342.04 735.556 1343.7 735.983 1345.66 735.983C1348.12 735.983 1350.08 735.58 1351.52 734.774C1352.96 733.969 1354.02 732.687 1354.7 730.929C1355.41 729.171 1355.88 726.876 1356.09 724.044ZM1400.88 710.604V716.354H1377.77V710.604H1400.88ZM1378.69 687.68V741H1371.95V687.68H1378.69ZM1406.85 687.68V741H1400.11V687.68H1406.85Z" fill="#F2F2F2"/>
<path d="M1111.21 205.887L1119.74 168.68H1124.54L1122.01 183.145L1112.75 222H1107.95L1111.21 205.887ZM1102.79 168.68L1109.45 205.154L1111.43 222H1106.7L1096.08 168.68H1102.79ZM1135.42 205.118L1141.93 168.68H1148.64L1138.05 222H1133.33L1135.42 205.118ZM1125.31 168.68L1133.58 205.887L1136.77 222H1131.97L1123.11 183.145L1120.58 168.68H1125.31ZM1191.04 190.726V199.991C1191.04 203.75 1190.63 207.059 1189.8 209.915C1188.99 212.747 1187.81 215.115 1186.25 217.02C1184.68 218.924 1182.8 220.352 1180.61 221.304C1178.41 222.256 1175.93 222.732 1173.17 222.732C1170.51 222.732 1168.08 222.256 1165.88 221.304C1163.69 220.352 1161.79 218.924 1160.21 217.02C1158.62 215.115 1157.39 212.747 1156.51 209.915C1155.65 207.059 1155.23 203.75 1155.23 199.991V190.726C1155.23 186.966 1155.65 183.67 1156.51 180.838C1157.36 177.981 1158.58 175.601 1160.17 173.697C1161.76 171.792 1163.65 170.364 1165.85 169.412C1168.04 168.436 1170.47 167.947 1173.13 167.947C1175.89 167.947 1178.37 168.436 1180.57 169.412C1182.79 170.364 1184.67 171.792 1186.21 173.697C1187.77 175.601 1188.97 177.981 1189.8 180.838C1190.63 183.67 1191.04 186.966 1191.04 190.726ZM1184.38 199.991V190.652C1184.38 187.723 1184.13 185.208 1183.65 183.108C1183.16 180.984 1182.44 179.251 1181.48 177.908C1180.53 176.565 1179.36 175.577 1177.97 174.942C1176.58 174.283 1174.97 173.953 1173.13 173.953C1171.4 173.953 1169.84 174.283 1168.45 174.942C1167.08 175.577 1165.91 176.565 1164.93 177.908C1163.96 179.251 1163.2 180.984 1162.66 183.108C1162.15 185.208 1161.89 187.723 1161.89 190.652V199.991C1161.89 202.945 1162.15 205.484 1162.66 207.608C1163.2 209.708 1163.96 211.441 1164.93 212.808C1165.93 214.151 1167.13 215.152 1168.52 215.811C1169.91 216.446 1171.46 216.763 1173.17 216.763C1175 216.763 1176.61 216.446 1178.01 215.811C1179.42 215.152 1180.59 214.151 1181.52 212.808C1182.47 211.441 1183.18 209.708 1183.65 207.608C1184.13 205.484 1184.38 202.945 1184.38 199.991ZM1201.52 168.68H1216.42C1219.89 168.68 1222.79 169.29 1225.14 170.511C1227.5 171.731 1229.29 173.538 1230.48 175.931C1231.7 178.299 1232.31 181.216 1232.31 184.683C1232.31 187.125 1231.91 189.358 1231.11 191.385C1230.3 193.387 1229.13 195.096 1227.59 196.512C1226.05 197.903 1224.18 198.941 1221.99 199.625L1220.16 200.394H1206.86L1206.79 194.644H1216.35C1218.4 194.644 1220.11 194.205 1221.47 193.326C1222.84 192.422 1223.87 191.214 1224.55 189.7C1225.23 188.187 1225.58 186.514 1225.58 184.683C1225.58 182.632 1225.27 180.838 1224.66 179.3C1224.05 177.762 1223.07 176.578 1221.73 175.748C1220.41 174.893 1218.64 174.466 1216.42 174.466H1208.25V222H1201.52V168.68ZM1227.11 222L1216.49 197.83L1223.49 197.793L1234.33 221.561V222H1227.11ZM1248.06 168.68V222H1241.32V168.68H1248.06ZM1274.87 168.68L1256.52 193.545L1245.79 206.473L1244.58 198.929L1252.46 188.602L1266.81 168.68H1274.87ZM1268.17 222L1252.46 195.999L1256.45 190.396L1276.19 222H1268.17Z" fill="#F2F2F2"/>
</svg>
