<svg width="400" height="289" viewBox="0 0 400 289" fill="none" xmlns="http://www.w3.org/2000/svg">
<rect x="2" y="2" width="396" height="285" fill="#EAE8EC" stroke="#E15020" stroke-width="4"/>
<path d="M40 218V105.48L119.109 102.557H196.298L203.21 112.786L206.206 145.3L205.899 132.149V103.653L290 100L285.776 125.573H233.548V145.3H281.551L285.776 162.471L233.548 171.238V192.793L288.464 199.003V218L207.819 214.347L206.206 145.3L196.298 154.068L163.272 158.452L203.21 213.251L170.952 218L147.911 178.91L151.367 218H119.109V102.557L112.965 132.149L69.1859 133.61L71.874 145.3L117.957 139.82V165.393L73.4101 171.238L78.7865 218H40Z" fill="#E15020"/>
<path d="M119.109 102.557L40 105.48V218H78.7865L73.4101 171.238L117.957 165.393V139.82L71.874 145.3L69.1859 133.61L112.965 132.149L119.109 102.557ZM119.109 102.557V218H151.367L147.911 178.91L170.952 218L203.21 213.251L163.272 158.452L196.298 154.068L206.206 145.3L203.21 112.786L196.298 102.557H119.109ZM207.819 214.347L288.464 218V199.003L233.548 192.793V171.238L285.776 162.471L281.551 145.3H233.548V125.573H285.776L290 100L205.899 103.653V132.149L207.819 214.347Z" stroke="#E15020" stroke-width="4"/>
<path d="M353.701 100H290V218H364V199.003L314.794 195.715V162.471L358.278 160.279L355.608 141.282H314.794V117.901H360.186L353.701 100Z" fill="#E15020"/>
<path d="M353.701 100H290V218H364V199.003L314.794 195.715V162.471L358.278 160.279L355.608 141.282H314.794V117.901H360.186L353.701 100Z" fill="#E15020"/>
<path d="M353.701 100H290V218H364V199.003L314.794 195.715V162.471L358.278 160.279L355.608 141.282H314.794V117.901H360.186L353.701 100Z" stroke="#E15020" stroke-width="4"/>
<path d="M78.06 82.38C78.0333 82.4333 78 82.8533 77.96 83.64C77.92 84.4267 77.9 85.2267 77.9 86.04C77.9 86.8667 77.92 87.56 77.96 88.12C78 88.48 78.1067 88.8333 78.28 89.18C78.4533 89.5133 78.66 89.74 78.9 89.86C79.3667 89.8867 79.72 89.6733 79.96 89.22H79.94C80.06 88.9667 80.12 88.5867 80.12 88.08C80.12 87.68 80.1467 87.3667 80.2 87.14C80.5333 87.1933 80.8533 87.22 81.16 87.22L82.08 87.2C82.56 87.2 83.0133 87.2533 83.44 87.36C83.6 87.8267 83.68 88.3133 83.68 88.82C83.68 89.58 83.4867 90.3 83.1 90.98C82.7267 91.66 82.2067 92.2133 81.54 92.64C80.8733 93.0667 80.1333 93.2933 79.32 93.32C79.08 93.36 78.8 93.38 78.48 93.38C77.44 93.38 76.5267 93.1467 75.74 92.68C74.9533 92.2133 74.5133 91.5133 74.42 90.58C74.3533 89.2467 74.32 87.8133 74.32 86.28C74.32 85.0133 74.3267 83.9733 74.34 83.16L74.36 82.26C74.3467 82.06 74.36 81.8333 74.4 81.58C74.4533 81.3133 74.52 81.08 74.6 80.88C74.72 80.5733 74.8733 80.2667 75.06 79.96C75.26 79.6533 75.4667 79.4 75.68 79.2C75.96 78.9733 76.3733 78.78 76.92 78.62C77.44 78.46 77.98 78.38 78.54 78.38C79.4467 78.38 80.3 78.5933 81.1 79.02C81.9 79.4333 82.54 80.0067 83.02 80.74C83.5 81.46 83.74 82.2467 83.74 83.1C83.74 83.6067 83.6467 84.1133 83.46 84.62C82.9 84.74 82.4333 84.8 82.06 84.8C81.5533 84.8 80.8533 84.7133 79.96 84.54L79.9 83.78C79.8733 83.1667 79.7933 82.7067 79.66 82.4C79.54 82.08 79.2733 81.9267 78.86 81.94C78.8467 81.94 78.8267 81.9467 78.8 81.96C78.7867 81.96 78.76 81.96 78.72 81.96H78.74C78.3267 82.0267 78.1 82.1667 78.06 82.38ZM93.1256 82.4C93.1656 82.8133 93.1856 83.2333 93.1856 83.66L93.1656 84.02V84.38C93.139 84.82 93.1256 85.4667 93.1256 86.32C93.1256 87.2667 93.1056 87.9867 93.0656 88.48L93.0056 89.14C92.939 90.22 92.6656 91.14 92.1856 91.9C91.9856 92.18 91.6856 92.4267 91.2856 92.64C90.8856 92.8533 90.4456 93.0267 89.9656 93.16C89.4723 93.3067 88.8923 93.38 88.2256 93.38C87.919 93.38 87.7056 93.3733 87.5856 93.36C86.9323 93.3067 86.3456 93.1667 85.8256 92.94C85.319 92.7 84.9456 92.3533 84.7056 91.9C84.3856 91.3 84.2123 90.5467 84.1856 89.64L84.1456 89C84.1323 88.8933 84.1256 88.6733 84.1256 88.34C84.059 87.2467 84.0256 86.2 84.0256 85.2C84.0256 84.5867 84.0456 83.9733 84.0856 83.36C84.1256 82.6933 84.239 82.0467 84.4256 81.42C84.6256 80.78 84.9256 80.22 85.3256 79.74L85.7656 79.5C86.619 79.0867 87.5523 78.88 88.5656 78.88C89.2056 78.88 89.8056 78.9667 90.3656 79.14C90.939 79.3 91.439 79.54 91.8656 79.86C92.3323 80.2867 92.639 80.7067 92.7856 81.12C92.9456 81.5467 93.059 81.9733 93.1256 82.4ZM90.0256 84.58L89.9456 83.54C89.919 83.1667 89.8256 82.84 89.6656 82.56C89.519 82.2667 89.3256 82.06 89.0856 81.94C88.979 81.9 88.8723 81.88 88.7656 81.88C88.4456 81.88 88.1323 81.9867 87.8256 82.2C87.6656 82.3333 87.5056 82.5267 87.3456 82.78C87.199 83.02 87.0856 83.2667 87.0056 83.52C86.8723 84.1067 86.8056 84.8533 86.8056 85.76C86.8056 86.2133 86.8123 86.5533 86.8256 86.78V86.76C86.879 87.0267 86.919 87.38 86.9456 87.82L86.9656 88.1C87.019 88.7667 87.0923 89.26 87.1856 89.58V89.56C87.3056 89.8267 87.479 90.0333 87.7056 90.18C87.9456 90.3133 88.199 90.38 88.4656 90.38C88.679 90.38 88.8923 90.3333 89.1056 90.24C89.3323 90.1333 89.5256 89.9867 89.6856 89.8C89.819 89.6267 89.899 89.48 89.9256 89.36C89.9656 89.24 89.9856 89.0533 89.9856 88.8C89.9856 88.5733 89.9923 88.4067 90.0056 88.3L90.0256 88.04L90.0456 87.66V87.38L90.0656 87V86.04L90.0256 84.68V84.58ZM103.414 83.2C103.414 83.4533 103.407 83.6333 103.394 83.74C103.3 84.5 103.007 85.2 102.514 85.84C102.02 86.48 101.407 86.9867 100.674 87.36C99.9403 87.72 99.1669 87.9 98.3536 87.9C98.3136 87.9 98.2603 87.9067 98.1936 87.92C98.1269 87.92 98.0469 87.9133 97.9536 87.9C97.9669 88.06 97.9669 88.22 97.9536 88.38C97.9536 88.54 97.9536 88.6867 97.9536 88.82V92.88L97.7336 92.9C97.3736 93.0067 96.7469 93.06 95.8536 93.06C95.1869 93.06 94.5736 93.0267 94.0136 92.96C93.9603 91.6667 93.9336 89.42 93.9336 86.22V83.8C93.9336 81.6267 93.9136 80.0467 93.8736 79.06C94.9003 78.7667 95.9736 78.62 97.0936 78.62C98.8136 78.62 100.274 78.9867 101.474 79.72C102.687 80.44 103.334 81.5933 103.414 83.18V83.2ZM99.4536 82.3C99.2403 82.1133 99.0069 81.9933 98.7536 81.94C98.5003 81.8867 98.2403 81.86 97.9736 81.86C97.7203 81.8467 97.5269 81.84 97.3936 81.84C97.4069 82.0533 97.4136 82.4133 97.4136 82.92V83.1C97.4136 83.5 97.4203 83.8333 97.4336 84.1C97.4603 84.3533 97.5069 84.58 97.5736 84.78H97.8536C97.9469 84.78 98.1403 84.78 98.4336 84.78C98.7403 84.78 99.0003 84.74 99.2136 84.66C99.4403 84.58 99.6136 84.4467 99.7336 84.26C99.8669 84.0333 99.9336 83.7733 99.9336 83.48C99.9336 83.12 99.8269 82.7867 99.6136 82.48L99.4536 82.3ZM112.975 91.22C112.975 91.9 112.902 92.5067 112.755 93.04C112.168 93.04 111.302 93.0533 110.155 93.08L107.535 93.1C106.348 93.1 105.162 93.06 103.975 92.98C103.988 92.5533 103.968 90.8933 103.915 88C103.875 86.36 103.855 85.1 103.855 84.22C103.855 82.3933 103.902 80.6933 103.995 79.12L105.755 79.06C107.728 78.98 109.235 78.94 110.275 78.94C111.168 78.94 112.035 78.9733 112.875 79.04C112.928 79.32 112.955 79.6467 112.955 80.02C112.955 80.22 112.942 80.5467 112.915 81C112.888 81.4267 112.875 81.76 112.875 82C112.075 82.1733 111.182 82.26 110.195 82.26L107.595 82.28C107.528 82.9067 107.495 83.4267 107.495 83.84C107.495 84.16 107.535 84.44 107.615 84.68L108.935 84.52C109.122 84.52 109.402 84.5333 109.775 84.56L110.035 84.58C110.102 84.98 110.135 85.4133 110.135 85.88L110.095 87.48C109.668 87.6 109.095 87.66 108.375 87.66L107.855 87.64C107.762 87.64 107.702 87.6533 107.675 87.68L107.595 88.72C107.595 89.2667 107.622 89.72 107.675 90.08C108.368 90.08 109.042 90.1 109.695 90.14C109.922 90.1533 110.202 90.1667 110.535 90.18C110.868 90.1933 111.262 90.2 111.715 90.2L112.935 90.16C112.962 90.7733 112.975 91.1267 112.975 91.22ZM118.584 91.32C117.744 89.48 117.191 88.2067 116.924 87.5V91.34C116.924 92.1667 116.931 92.7333 116.944 93.04C116.584 93.1467 116.191 93.2 115.764 93.2C115.631 93.2 115.431 93.1867 115.164 93.16C114.871 93.1333 114.657 93.12 114.524 93.12L113.544 93.08V91.58C113.544 90.7267 113.531 89.5133 113.504 87.94C113.491 87.1533 113.484 85.96 113.484 84.36C113.484 82.2133 113.544 80.4133 113.664 78.96C114.024 78.8667 114.424 78.82 114.864 78.82C115.157 78.82 115.511 78.8467 115.924 78.9C116.351 78.9533 116.644 79.0333 116.804 79.14C116.991 79.4867 117.217 79.9733 117.484 80.6C117.764 81.2133 118.031 81.8267 118.284 82.44L119.084 84.28C119.057 83.3467 119.044 82.2467 119.044 80.98C119.044 79.9533 119.051 79.2467 119.064 78.86C119.611 78.7533 120.191 78.7 120.804 78.7C121.324 78.7 121.864 78.76 122.424 78.88V93.06C122.384 93.06 122.304 93.08 122.184 93.12C122.051 93.1733 121.817 93.2 121.484 93.2C121.417 93.2133 121.064 93.1933 120.424 93.14C120.264 93.1267 120.057 93.1133 119.804 93.1C119.564 93.0867 119.424 93.0867 119.384 93.1L118.584 91.32ZM132.645 92.94C132.098 93.0333 131.378 93.08 130.485 93.08C130.032 93.08 129.618 93.0933 129.245 93.12C129.165 92.5467 129.105 91.5333 129.065 90.08C129.038 88.96 128.978 88.1 128.885 87.5L128.125 87.46C127.725 87.46 127.418 87.4867 127.205 87.54C127.165 87.9267 127.145 88.2933 127.145 88.64C127.145 89.24 127.152 89.6867 127.165 89.98V90.5L127.185 91.02C127.185 91.82 127.152 92.4267 127.085 92.84C126.778 93.0133 126.405 93.1 125.965 93.1C125.752 93.1 125.485 93.0867 125.165 93.06L124.985 93.04C124.745 93.0133 124.585 93 124.505 93L123.865 93.04C123.772 91.84 123.678 90.0333 123.585 87.62C123.492 85.2067 123.445 83.06 123.445 81.18C123.445 80.1133 123.452 79.3667 123.465 78.94L125.725 78.9C126.072 78.9 126.385 78.9467 126.665 79.04C126.732 79.6133 126.778 80.2733 126.805 81.02L126.825 81.5C126.852 82.0867 126.885 82.58 126.925 82.98C126.965 83.3667 127.032 83.7933 127.125 84.26L127.885 84.34C128.018 84.34 128.145 84.3267 128.265 84.3C128.398 84.2733 128.525 84.2533 128.645 84.24H128.685C128.778 83.2267 128.825 82.2467 128.825 81.3C128.825 80.6067 128.805 79.86 128.765 79.06C129.072 78.9667 129.445 78.8933 129.885 78.84C130.325 78.7867 130.752 78.76 131.165 78.76C131.525 78.76 131.838 78.7733 132.105 78.8L132.645 92.94ZM142.005 93.06C141.579 93.1533 141.119 93.2 140.625 93.2C140.039 93.2 139.399 93.1267 138.705 92.98C138.612 92.7267 138.465 92.1933 138.265 91.38C138.065 90.5533 137.905 90.0067 137.785 89.74L137.385 89.72L137.045 89.74C136.992 89.9 136.905 90.2933 136.785 90.92C136.692 91.44 136.599 91.8667 136.505 92.2C136.412 92.52 136.279 92.8133 136.105 93.08C135.972 93.1067 135.772 93.12 135.505 93.12C135.385 93.12 135.125 93.1067 134.725 93.08C133.565 93.0267 132.919 93 132.785 93C132.785 92.9333 132.799 92.78 132.825 92.54C132.852 92.2867 132.892 92.0067 132.945 91.7L133.385 89.18C133.732 87.1133 134.059 85.3133 134.365 83.78C134.685 82.2467 135.099 80.6267 135.605 78.92C135.792 78.8933 136.045 78.88 136.365 78.88H136.485C137.352 78.88 138.199 78.8467 139.025 78.78C139.185 79.4067 139.332 80.0267 139.465 80.64C139.599 81.24 139.719 81.78 139.825 82.26C140.252 84.1133 140.539 85.3467 140.685 85.96L142.005 93.06ZM137.825 87.18C137.532 84.5133 137.392 83.18 137.405 83.18L137.385 82.98C137.385 82.98 137.372 83.14 137.345 83.46C137.305 84.46 137.245 85.2533 137.165 85.84L136.985 87.18H137.825ZM147.821 85.74C148.395 85.74 149.041 85.7667 149.761 85.82L150.401 85.86L150.741 85.88L150.781 86.3C150.795 86.4467 150.821 86.7667 150.861 87.26C150.901 87.74 150.921 88.1533 150.921 88.5C150.921 89.18 150.868 89.8533 150.761 90.52C150.668 91.12 150.435 91.6267 150.061 92.04C149.688 92.4533 149.215 92.7667 148.641 92.98C147.668 93.2733 146.768 93.42 145.941 93.42C145.301 93.42 144.721 93.32 144.201 93.12C143.148 92.6533 142.461 91.84 142.141 90.68C142.048 90.32 141.968 89.8533 141.901 89.28C141.901 89.4267 141.828 88.2333 141.681 85.7C141.681 85.2733 141.688 84.9333 141.701 84.68C141.728 83.48 141.795 82.6 141.901 82.04C142.088 80.9733 142.521 80.1867 143.201 79.68C143.708 79.3067 144.401 79.0533 145.281 78.92C145.588 78.88 145.901 78.86 146.221 78.86C147.555 78.86 148.648 79.2 149.501 79.88C150.355 80.5467 150.781 81.5 150.781 82.74L150.741 83.38V83.66C150.648 83.6733 150.535 83.68 150.401 83.68C150.268 83.68 150.148 83.68 150.041 83.68H149.081C148.575 83.68 148.088 83.6533 147.621 83.6C147.301 82.5067 146.941 81.96 146.541 81.96C146.475 81.96 146.401 81.9533 146.321 81.94C146.241 81.9267 146.168 81.92 146.101 81.92C145.888 81.92 145.701 82 145.541 82.16C145.528 82.1733 145.481 82.3333 145.401 82.64C145.148 83.48 145.021 84.72 145.021 86.36C145.021 87.1733 145.048 87.8467 145.101 88.38C145.195 89.2733 145.375 89.84 145.641 90.08C145.775 90.16 145.881 90.2133 145.961 90.24C146.108 90.2533 146.281 90.2467 146.481 90.22C146.695 90.18 146.881 90.1267 147.041 90.06C147.268 89.9667 147.415 89.7533 147.481 89.42C147.521 89.26 147.561 89.0533 147.601 88.8C147.641 88.5467 147.655 88.3933 147.641 88.34H147.161C146.668 88.3667 146.288 88.3267 146.021 88.22C145.995 87.94 145.981 87.5933 145.981 87.18V86.96C145.981 86.9067 145.981 86.82 145.981 86.7C145.995 86.5667 145.981 86.32 145.941 85.96C146.048 85.96 146.275 85.9333 146.621 85.88C147.155 85.7867 147.555 85.74 147.821 85.74ZM160.67 91.22C160.67 91.9 160.597 92.5067 160.45 93.04C159.864 93.04 158.997 93.0533 157.85 93.08L155.23 93.1C154.044 93.1 152.857 93.06 151.67 92.98C151.684 92.5533 151.664 90.8933 151.61 88C151.57 86.36 151.55 85.1 151.55 84.22C151.55 82.3933 151.597 80.6933 151.69 79.12L153.45 79.06C155.424 78.98 156.93 78.94 157.97 78.94C158.864 78.94 159.73 78.9733 160.57 79.04C160.624 79.32 160.65 79.6467 160.65 80.02C160.65 80.22 160.637 80.5467 160.61 81C160.584 81.4267 160.57 81.76 160.57 82C159.77 82.1733 158.877 82.26 157.89 82.26L155.29 82.28C155.224 82.9067 155.19 83.4267 155.19 83.84C155.19 84.16 155.23 84.44 155.31 84.68L156.63 84.52C156.817 84.52 157.097 84.5333 157.47 84.56L157.73 84.58C157.797 84.98 157.83 85.4133 157.83 85.88L157.79 87.48C157.364 87.6 156.79 87.66 156.07 87.66L155.55 87.64C155.457 87.64 155.397 87.6533 155.37 87.68L155.29 88.72C155.29 89.2667 155.317 89.72 155.37 90.08C156.064 90.08 156.737 90.1 157.39 90.14C157.617 90.1533 157.897 90.1667 158.23 90.18C158.564 90.1933 158.957 90.2 159.41 90.2L160.63 90.16C160.657 90.7733 160.67 91.1267 160.67 91.22ZM166.279 91.32C165.439 89.48 164.886 88.2067 164.619 87.5V91.34C164.619 92.1667 164.626 92.7333 164.639 93.04C164.279 93.1467 163.886 93.2 163.459 93.2C163.326 93.2 163.126 93.1867 162.859 93.16C162.566 93.1333 162.353 93.12 162.219 93.12L161.239 93.08V91.58C161.239 90.7267 161.226 89.5133 161.199 87.94C161.186 87.1533 161.179 85.96 161.179 84.36C161.179 82.2133 161.239 80.4133 161.359 78.96C161.719 78.8667 162.119 78.82 162.559 78.82C162.853 78.82 163.206 78.8467 163.619 78.9C164.046 78.9533 164.339 79.0333 164.499 79.14C164.686 79.4867 164.913 79.9733 165.179 80.6C165.459 81.2133 165.726 81.8267 165.979 82.44L166.779 84.28C166.753 83.3467 166.739 82.2467 166.739 80.98C166.739 79.9533 166.746 79.2467 166.759 78.86C167.306 78.7533 167.886 78.7 168.499 78.7C169.019 78.7 169.559 78.76 170.119 78.88V93.06C170.079 93.06 169.999 93.08 169.879 93.12C169.746 93.1733 169.513 93.2 169.179 93.2C169.113 93.2133 168.759 93.1933 168.119 93.14C167.959 93.1267 167.753 93.1133 167.499 93.1C167.259 93.0867 167.119 93.0867 167.079 93.1L166.279 91.32ZM189.896 93C189.709 93.04 189.549 93.0667 189.416 93.08C189.282 93.0933 189.129 93.1 188.956 93.1L187.116 93.12C186.956 93.12 186.876 93.0067 186.876 92.78C186.876 92.5667 186.982 92.1733 187.196 91.6C187.236 91.48 187.282 91.3733 187.336 91.28H187.316V91.24C187.516 90.6 187.736 89.9867 187.976 89.4C188.042 89.1467 188.676 87.4133 189.876 84.2L190.236 83.18C190.249 83.14 190.269 83.0733 190.296 82.98C190.336 82.8867 190.356 82.8067 190.356 82.74C190.449 82.4333 190.536 82.16 190.616 81.92C190.656 81.84 190.789 81.4533 191.016 80.76C191.256 80.0533 191.462 79.3533 191.636 78.66C191.956 78.7267 192.276 78.76 192.596 78.76L193.576 78.74C194.082 78.74 194.496 78.82 194.816 78.98C194.802 78.9933 194.776 79.0133 194.736 79.04C194.696 79.0667 194.669 79.1 194.656 79.14C194.669 79.1267 194.689 79.14 194.716 79.18C194.742 79.22 194.749 79.26 194.736 79.3L194.716 79.36L194.196 81.08C194.089 81.44 194.016 81.6733 193.976 81.78L193.816 82.28L193.516 83.12L193.036 84.48C192.809 85.12 192.669 85.5333 192.616 85.72C192.602 85.7733 192.589 85.82 192.576 85.86C192.562 85.9 192.549 85.9467 192.536 86L192.296 86.7L192.156 87.12L191.556 88.82L191.396 89.28L191.116 90.02L189.956 92.94L189.896 93ZM194.525 93C194.338 93.04 194.178 93.0667 194.045 93.08C193.911 93.0933 193.758 93.1 193.585 93.1L191.745 93.12C191.585 93.12 191.505 93.0067 191.505 92.78C191.505 92.5667 191.611 92.1733 191.825 91.6C191.865 91.48 191.911 91.3733 191.965 91.28H191.945V91.24C192.145 90.6 192.365 89.9867 192.605 89.4C192.671 89.1467 193.305 87.4133 194.505 84.2L194.865 83.18C194.878 83.14 194.898 83.0733 194.925 82.98C194.965 82.8867 194.985 82.8067 194.985 82.74C195.078 82.4333 195.165 82.16 195.245 81.92C195.285 81.84 195.418 81.4533 195.645 80.76C195.885 80.0533 196.091 79.3533 196.265 78.66C196.585 78.7267 196.905 78.76 197.225 78.76L198.205 78.74C198.711 78.74 199.125 78.82 199.445 78.98C199.431 78.9933 199.405 79.0133 199.365 79.04C199.325 79.0667 199.298 79.1 199.285 79.14C199.298 79.1267 199.318 79.14 199.345 79.18C199.371 79.22 199.378 79.26 199.365 79.3L199.345 79.36L198.825 81.08C198.718 81.44 198.645 81.6733 198.605 81.78L198.445 82.28L198.145 83.12L197.665 84.48C197.438 85.12 197.298 85.5333 197.245 85.72C197.231 85.7733 197.218 85.82 197.205 85.86C197.191 85.9 197.178 85.9467 197.165 86L196.925 86.7L196.785 87.12L196.185 88.82L196.025 89.28L195.745 90.02L194.585 92.94L194.525 93ZM239.718 86.32C240.225 86.96 240.598 87.4933 240.838 87.92C241.078 88.3333 241.198 88.82 241.198 89.38C241.198 89.6067 241.178 89.8533 241.138 90.12C240.925 91.3067 240.371 92.12 239.478 92.56C238.585 92.9867 237.438 93.2 236.038 93.2C235.625 93.2 234.331 93.12 232.158 92.96C232.118 91.96 232.098 90.36 232.098 88.16C232.098 85.7733 232.105 83.62 232.118 81.7V79.1C233.291 78.7667 234.418 78.6 235.498 78.6C237.005 78.6 238.238 78.9333 239.198 79.6C240.171 80.2533 240.658 81.3333 240.658 82.84C240.658 83.8133 240.318 84.8733 239.638 86.02V86C239.611 86.0533 239.598 86.0933 239.598 86.12C239.598 86.16 239.638 86.22 239.718 86.3V86.32ZM237.498 82.84C237.298 82.4667 237.045 82.24 236.738 82.16C236.525 82.1333 236.358 82.12 236.238 82.12C235.891 82.0933 235.631 82.06 235.458 82.02C235.498 82.2467 235.518 82.5933 235.518 83.06V83.78C235.518 84.1133 235.525 84.3733 235.538 84.56H236.118C236.705 84.56 237.105 84.36 237.318 83.96C237.491 83.64 237.578 83.38 237.578 83.18C237.578 83.06 237.551 82.9467 237.498 82.84ZM237.498 88.98C237.498 88.7533 237.458 88.5067 237.378 88.24V88.26C237.311 88.1133 237.218 87.98 237.098 87.86C236.978 87.74 236.858 87.6667 236.738 87.64C236.525 87.5867 236.211 87.5467 235.798 87.52C235.758 87.52 235.711 87.5267 235.658 87.54C235.618 87.54 235.571 87.5333 235.518 87.52C235.385 88.08 235.318 88.5667 235.318 88.98C235.318 89.46 235.391 89.8333 235.538 90.1C236.018 90.1133 236.391 90.1 236.658 90.06C236.938 90.0067 237.171 89.8667 237.358 89.64C237.451 89.5067 237.498 89.2867 237.498 88.98ZM250.709 91.22C250.709 91.9 250.636 92.5067 250.489 93.04C249.903 93.04 249.036 93.0533 247.889 93.08L245.269 93.1C244.083 93.1 242.896 93.06 241.709 92.98C241.723 92.5533 241.703 90.8933 241.649 88C241.609 86.36 241.589 85.1 241.589 84.22C241.589 82.3933 241.636 80.6933 241.729 79.12L243.489 79.06C245.463 78.98 246.969 78.94 248.009 78.94C248.903 78.94 249.769 78.9733 250.609 79.04C250.663 79.32 250.689 79.6467 250.689 80.02C250.689 80.22 250.676 80.5467 250.649 81C250.623 81.4267 250.609 81.76 250.609 82C249.809 82.1733 248.916 82.26 247.929 82.26L245.329 82.28C245.263 82.9067 245.229 83.4267 245.229 83.84C245.229 84.16 245.269 84.44 245.349 84.68L246.669 84.52C246.856 84.52 247.136 84.5333 247.509 84.56L247.769 84.58C247.836 84.98 247.869 85.4133 247.869 85.88L247.829 87.48C247.403 87.6 246.829 87.66 246.109 87.66L245.589 87.64C245.496 87.64 245.436 87.6533 245.409 87.68L245.329 88.72C245.329 89.2667 245.356 89.72 245.409 90.08C246.103 90.08 246.776 90.1 247.429 90.14C247.656 90.1533 247.936 90.1667 248.269 90.18C248.603 90.1933 248.996 90.2 249.449 90.2L250.669 90.16C250.696 90.7733 250.709 91.1267 250.709 91.22ZM259.298 89.28C259.832 90.0933 260.258 90.78 260.578 91.34C260.912 91.9 261.185 92.4667 261.398 93.04H261.078C260.918 93.04 260.558 93.0533 259.998 93.08C259.438 93.1067 258.992 93.12 258.658 93.12C258.472 93.12 258.192 93.1067 257.818 93.08L257.478 93.06C256.612 91.0867 255.838 89.6067 255.158 88.62V89.14C255.158 89.9667 255.205 91.0333 255.298 92.34V92.32C255.312 92.4133 255.318 92.5733 255.318 92.8C254.865 93.0133 254.118 93.12 253.078 93.12L252.598 93.1H251.538C251.392 93.1 251.318 91.8933 251.318 89.48C251.318 87.2933 251.298 85.1067 251.258 82.92C251.218 80.72 251.158 79.4 251.078 78.96L251.618 78.88C252.418 78.7733 253.078 78.6933 253.598 78.64C254.118 78.5867 254.652 78.56 255.198 78.56C255.785 78.56 256.285 78.5867 256.698 78.64C257.472 78.7333 258.192 79 258.858 79.44C259.538 79.88 260.078 80.42 260.478 81.06C260.892 81.7 261.098 82.36 261.098 83.04C261.098 83.6933 260.885 84.4067 260.458 85.18C260.192 85.66 259.838 86.06 259.398 86.38C258.958 86.7 258.432 86.8933 257.818 86.96C258.178 87.6 258.598 88.2667 259.078 88.96C259.172 89.12 259.245 89.2267 259.298 89.28ZM256.418 84.18C256.605 84.1267 256.752 83.9933 256.858 83.78C256.965 83.5667 257.018 83.3133 257.018 83.02C257.018 82.4733 256.885 82.12 256.618 81.96C256.445 81.8533 256.265 81.7867 256.078 81.76C255.905 81.7333 255.705 81.72 255.478 81.72L254.618 81.86C254.645 82.26 254.658 82.6 254.658 82.88C254.658 83.6 254.678 84.04 254.718 84.2C254.945 84.2267 255.225 84.24 255.558 84.24C255.865 84.24 256.152 84.22 256.418 84.18ZM270.55 91.56C270.563 91.72 270.57 91.9533 270.57 92.26C270.57 92.54 270.543 92.74 270.49 92.86C270.45 92.9667 270.383 93.0333 270.29 93.06C270.197 93.0867 270.037 93.1 269.81 93.1H269.67L269.35 93.08L268.83 93.1C268.003 93.1267 266.783 93.14 265.17 93.14C263.637 93.14 262.417 93.1333 261.51 93.12V92.66C261.603 90.46 261.65 88.2467 261.65 86.02C261.65 85.3667 261.637 84.24 261.61 82.64V82.16V81.42C261.597 81.1933 261.59 80.7867 261.59 80.2L261.57 78.9C261.757 78.8333 262.017 78.78 262.35 78.74C262.683 78.6867 263.017 78.66 263.35 78.66C263.723 78.66 264.097 78.6867 264.47 78.74C264.843 78.7933 265.143 78.8667 265.37 78.96C265.343 79.92 265.33 80.6867 265.33 81.26C265.33 82.06 265.343 83.26 265.37 84.86C265.383 85.66 265.39 86.84 265.39 88.4V89.7C265.83 89.7 266.37 89.72 267.01 89.76L268.07 89.8C268.63 89.84 269.157 89.86 269.65 89.86C269.997 89.86 270.303 89.8467 270.57 89.82C270.57 90.1267 270.563 90.3267 270.55 90.42V90.4C270.523 90.76 270.517 91.02 270.53 91.18L270.55 91.56ZM275.049 79.02C275.049 80.58 275.029 82.1533 274.989 83.74C274.935 85.8467 274.909 87.5067 274.909 88.72C274.909 90.12 274.949 91.5133 275.029 92.9C274.829 93.1 274.309 93.2 273.469 93.2C272.989 93.2 272.635 93.1933 272.409 93.18L272.169 93.16L271.809 93.14C271.542 93.14 271.202 93.1933 270.789 93.3C270.869 92.14 270.909 90.9067 270.909 89.6C270.909 89.08 270.895 88.3133 270.869 87.3L270.849 86.14C270.795 84.7267 270.769 83.58 270.769 82.7C270.769 81.38 270.829 80.08 270.949 78.8C271.122 78.7733 271.309 78.76 271.509 78.76C271.615 78.76 271.762 78.7733 271.949 78.8C272.135 78.8133 272.355 78.8133 272.609 78.8C273.302 78.84 273.855 78.8533 274.269 78.84H275.049V79.02ZM281.084 91.32C280.244 89.48 279.691 88.2067 279.424 87.5V91.34C279.424 92.1667 279.431 92.7333 279.444 93.04C279.084 93.1467 278.691 93.2 278.264 93.2C278.131 93.2 277.931 93.1867 277.664 93.16C277.371 93.1333 277.157 93.12 277.024 93.12L276.044 93.08V91.58C276.044 90.7267 276.031 89.5133 276.004 87.94C275.991 87.1533 275.984 85.96 275.984 84.36C275.984 82.2133 276.044 80.4133 276.164 78.96C276.524 78.8667 276.924 78.82 277.364 78.82C277.657 78.82 278.011 78.8467 278.424 78.9C278.851 78.9533 279.144 79.0333 279.304 79.14C279.491 79.4867 279.717 79.9733 279.984 80.6C280.264 81.2133 280.531 81.8267 280.784 82.44L281.584 84.28C281.557 83.3467 281.544 82.2467 281.544 80.98C281.544 79.9533 281.551 79.2467 281.564 78.86C282.111 78.7533 282.691 78.7 283.304 78.7C283.824 78.7 284.364 78.76 284.924 78.88V93.06C284.884 93.06 284.804 93.08 284.684 93.12C284.551 93.1733 284.317 93.2 283.984 93.2C283.917 93.2133 283.564 93.1933 282.924 93.14C282.764 93.1267 282.557 93.1133 282.304 93.1C282.064 93.0867 281.924 93.0867 281.884 93.1L281.084 91.32Z" fill="#ED6619"/>
<path d="M159.332 115C140.924 115 131.904 125.809 130 128.72C136.835 132.711 153.362 140.743 161.668 139.945C169.974 139.146 184.77 131.962 191 127.971C185.03 119.989 173.089 115 159.332 115Z" fill="#FFFEFE" stroke="white" stroke-width="3"/>
<path d="M160.65 138.95C151.759 139.731 149.851 131.137 150.009 126.743C150.797 123.162 154.029 116 160.65 116C167.271 116 170.975 123.162 172 126.743C171.921 130.486 169.541 138.169 160.65 138.95Z" fill="#050505" stroke="#050505" stroke-width="3"/>
</svg>
