<svg width="301" height="305" viewBox="0 0 301 305" fill="none" xmlns="http://www.w3.org/2000/svg">
<path d="M299.228 150.994C298.932 110.948 282.943 72.6595 254.781 44.5517C226.618 16.444 188.587 0.819367 149.055 1.11511C109.523 1.41085 71.7283 17.6027 43.9846 46.1287C16.2408 74.6547 0.821015 113.178 1.11735 153.224L31.255 152.999C31.0186 121.05 43.3206 90.3153 65.4548 67.557C87.5891 44.7987 117.742 31.8807 149.281 31.6448C180.82 31.4088 211.161 43.8743 233.63 66.2989C256.098 88.7235 268.854 119.27 269.09 151.219L299.228 150.994Z" fill="#1D3ADA"/>
<ellipse cx="102.799" cy="102.533" rx="102.799" ry="102.533" transform="matrix(0.99994 -0.0109341 0.0106527 0.999943 47.2412 40.4685)" fill="#E96A5F"/>
<path d="M113.095 149.169V152H105.414V149.169H113.095ZM106.392 133.516V152H102.989V133.516H106.392ZM118.63 138.264V152H115.367V138.264H118.63ZM115.202 134.684C115.202 134.167 115.363 133.744 115.685 133.414C116.006 133.076 116.446 132.906 117.005 132.906C117.563 132.906 117.999 133.076 118.312 133.414C118.626 133.744 118.782 134.167 118.782 134.684C118.782 135.191 118.626 135.615 118.312 135.953C117.999 136.283 117.563 136.448 117.005 136.448C116.446 136.448 116.006 136.283 115.685 135.953C115.363 135.615 115.202 135.191 115.202 134.684ZM124.825 141.196V152H121.562V138.264H124.609L124.825 141.196ZM124.292 144.649L123.353 144.662C123.336 143.655 123.433 142.745 123.645 141.933C123.865 141.112 124.178 140.409 124.584 139.825C124.99 139.241 125.477 138.793 126.044 138.479C126.611 138.166 127.246 138.01 127.948 138.01C128.49 138.01 128.981 138.103 129.421 138.289C129.869 138.475 130.255 138.771 130.576 139.178C130.898 139.584 131.147 140.117 131.325 140.777C131.503 141.438 131.592 142.246 131.592 143.202V152H128.329V143.177C128.329 142.559 128.261 142.076 128.126 141.729C127.999 141.374 127.809 141.124 127.555 140.98C127.309 140.828 126.992 140.752 126.603 140.752C126.239 140.752 125.913 140.854 125.625 141.057C125.337 141.251 125.092 141.531 124.889 141.895C124.694 142.25 124.546 142.665 124.444 143.139C124.343 143.604 124.292 144.108 124.292 144.649ZM137.622 132.487V152H134.372V132.487H137.622ZM144.795 138.264L139.933 145.005L137.013 148.306L136.01 145.652L138.206 142.479L140.897 138.264H144.795ZM141.469 152L138.27 145.627L140.415 143.418L145.201 152H141.469ZM151.765 152.254C150.851 152.254 150.038 152.114 149.327 151.835C148.625 151.556 148.028 151.149 147.537 150.616C147.046 150.083 146.67 149.427 146.407 148.648C146.153 147.87 146.026 146.977 146.026 145.97V144.738C146.026 143.596 146.158 142.605 146.42 141.768C146.682 140.921 147.046 140.223 147.512 139.673C147.986 139.114 148.553 138.7 149.213 138.429C149.882 138.149 150.618 138.01 151.422 138.01C152.285 138.01 153.038 138.154 153.682 138.441C154.333 138.721 154.871 139.14 155.294 139.698C155.717 140.257 156.03 140.951 156.233 141.78C156.445 142.601 156.551 143.553 156.551 144.637V146.198H147.486V143.824H153.352V143.507C153.335 142.914 153.263 142.411 153.136 141.996C153.009 141.581 152.806 141.268 152.526 141.057C152.256 140.837 151.883 140.727 151.409 140.727C151.037 140.727 150.715 140.803 150.444 140.955C150.174 141.099 149.953 141.327 149.784 141.641C149.623 141.945 149.501 142.356 149.416 142.872C149.331 143.38 149.289 144.002 149.289 144.738V145.97C149.289 146.621 149.348 147.176 149.467 147.633C149.585 148.081 149.759 148.45 149.987 148.737C150.216 149.017 150.495 149.22 150.825 149.347C151.155 149.474 151.54 149.537 151.98 149.537C152.641 149.537 153.22 149.419 153.72 149.182C154.219 148.936 154.651 148.61 155.015 148.204L156.373 150.197C156.128 150.527 155.793 150.853 155.37 151.175C154.947 151.488 154.435 151.746 153.834 151.949C153.242 152.152 152.552 152.254 151.765 152.254ZM165.552 149.055V132.5H168.802V152L165.856 152.013L165.552 149.055ZM158.29 145.652V144.662C158.29 143.536 158.387 142.559 158.582 141.729C158.785 140.892 159.077 140.198 159.458 139.647C159.847 139.097 160.321 138.687 160.88 138.416C161.438 138.145 162.073 138.01 162.784 138.01C163.453 138.01 164.037 138.171 164.536 138.492C165.035 138.805 165.454 139.25 165.793 139.825C166.14 140.401 166.419 141.086 166.631 141.882C166.842 142.669 166.991 143.536 167.075 144.484V145.906C166.974 146.812 166.817 147.654 166.605 148.433C166.402 149.211 166.127 149.884 165.78 150.451C165.433 151.018 165.01 151.463 164.511 151.784C164.02 152.097 163.44 152.254 162.771 152.254C162.061 152.254 161.426 152.114 160.867 151.835C160.317 151.547 159.847 151.128 159.458 150.578C159.077 150.02 158.785 149.33 158.582 148.509C158.387 147.679 158.29 146.727 158.29 145.652ZM161.553 144.662V145.652C161.553 146.321 161.591 146.901 161.667 147.392C161.743 147.874 161.862 148.272 162.022 148.585C162.192 148.89 162.412 149.118 162.683 149.271C162.962 149.414 163.3 149.486 163.698 149.486C164.206 149.486 164.617 149.359 164.93 149.105C165.251 148.852 165.497 148.505 165.666 148.064C165.835 147.616 165.945 147.108 165.996 146.541V143.862C165.971 143.405 165.903 142.986 165.793 142.605C165.683 142.225 165.535 141.899 165.349 141.628C165.162 141.349 164.934 141.133 164.663 140.98C164.392 140.828 164.075 140.752 163.711 140.752C163.313 140.752 162.975 140.832 162.695 140.993C162.424 141.146 162.204 141.378 162.035 141.691C161.874 142.005 161.752 142.411 161.667 142.91C161.591 143.401 161.553 143.985 161.553 144.662ZM177.549 142.732V145.449H171.595V142.732H177.549ZM184.112 133.516V152H180.735V133.516H184.112ZM190.485 141.196V152H187.223V138.264H190.27L190.485 141.196ZM189.952 144.649L189.013 144.662C188.996 143.655 189.093 142.745 189.305 141.933C189.525 141.112 189.838 140.409 190.244 139.825C190.65 139.241 191.137 138.793 191.704 138.479C192.271 138.166 192.906 138.01 193.608 138.01C194.15 138.01 194.641 138.103 195.081 138.289C195.53 138.475 195.915 138.771 196.236 139.178C196.558 139.584 196.808 140.117 196.985 140.777C197.163 141.438 197.252 142.246 197.252 143.202V152H193.989V143.177C193.989 142.559 193.922 142.076 193.786 141.729C193.659 141.374 193.469 141.124 193.215 140.98C192.969 140.828 192.652 140.752 192.263 140.752C191.899 140.752 191.573 140.854 191.285 141.057C190.997 141.251 190.752 141.531 190.549 141.895C190.354 142.25 190.206 142.665 190.104 143.139C190.003 143.604 189.952 144.108 189.952 144.649Z" fill="white"/>
</svg>
