<svg width="303" height="299" viewBox="0 0 303 299" fill="none" xmlns="http://www.w3.org/2000/svg">
<path d="M151.5 298.36C191.547 298.296 229.927 282.53 258.198 254.531C286.468 226.531 302.313 188.592 302.247 149.059C302.18 109.526 286.208 71.638 257.843 43.7293C229.478 15.8206 191.045 0.177716 150.998 0.241853L151.049 30.3803C182.999 30.3291 213.661 42.8092 236.291 65.075C258.92 87.3408 271.663 117.568 271.716 149.108C271.769 180.648 259.128 210.916 236.574 233.254C214.019 255.592 183.399 268.171 151.449 268.222L151.5 298.36Z" fill="#1D3ADA"/>
<ellipse cx="102.799" cy="102.533" rx="102.799" ry="102.533" transform="matrix(0.153081 0.988214 -0.988257 0.152802 247.11 31.5339)" fill="#E96A5F"/>
<path d="M113.976 132.708V151.192H110.599V132.708H113.976ZM120.349 140.388V151.192H117.087V137.456H120.134L120.349 140.388ZM119.816 143.842L118.877 143.854C118.86 142.847 118.957 141.937 119.169 141.125C119.389 140.304 119.702 139.601 120.108 139.017C120.514 138.433 121.001 137.985 121.568 137.672C122.135 137.358 122.77 137.202 123.472 137.202C124.014 137.202 124.505 137.295 124.945 137.481C125.394 137.667 125.779 137.964 126.1 138.37C126.422 138.776 126.672 139.309 126.849 139.969C127.027 140.63 127.116 141.438 127.116 142.394V151.192H123.853V142.369C123.853 141.751 123.786 141.269 123.65 140.922C123.523 140.566 123.333 140.316 123.079 140.173C122.833 140.02 122.516 139.944 122.127 139.944C121.763 139.944 121.437 140.046 121.149 140.249C120.861 140.443 120.616 140.723 120.413 141.087C120.218 141.442 120.07 141.857 119.969 142.331C119.867 142.796 119.816 143.3 119.816 143.842ZM136.117 147.523C136.117 147.261 136.032 147.028 135.863 146.825C135.702 146.622 135.444 146.414 135.089 146.203C134.733 145.991 134.263 145.763 133.679 145.517C133.045 145.263 132.482 145.005 131.991 144.743C131.509 144.472 131.098 144.176 130.76 143.854C130.421 143.524 130.167 143.152 129.998 142.737C129.829 142.314 129.744 141.827 129.744 141.277C129.744 140.71 129.85 140.181 130.061 139.69C130.273 139.199 130.578 138.768 130.975 138.395C131.382 138.023 131.872 137.731 132.448 137.519C133.024 137.308 133.671 137.202 134.39 137.202C135.398 137.202 136.261 137.384 136.98 137.748C137.708 138.103 138.262 138.603 138.643 139.246C139.033 139.889 139.227 140.63 139.227 141.468H135.977C135.977 141.146 135.922 140.854 135.812 140.592C135.702 140.329 135.529 140.122 135.292 139.969C135.055 139.809 134.75 139.728 134.378 139.728C134.065 139.728 133.794 139.792 133.565 139.919C133.345 140.046 133.176 140.215 133.057 140.427C132.939 140.63 132.88 140.862 132.88 141.125C132.88 141.328 132.918 141.506 132.994 141.658C133.079 141.81 133.21 141.958 133.387 142.102C133.565 142.238 133.802 142.382 134.098 142.534C134.403 142.678 134.78 142.847 135.228 143.042C136.142 143.389 136.9 143.757 137.501 144.146C138.102 144.527 138.55 144.976 138.846 145.492C139.143 146 139.291 146.635 139.291 147.396C139.291 147.997 139.177 148.547 138.948 149.047C138.719 149.546 138.389 149.978 137.958 150.342C137.535 150.697 137.023 150.972 136.422 151.167C135.821 151.353 135.148 151.446 134.403 151.446C133.311 151.446 132.389 151.23 131.635 150.799C130.891 150.367 130.324 149.808 129.934 149.123C129.553 148.437 129.363 147.722 129.363 146.977H132.486C132.503 147.468 132.6 147.858 132.778 148.145C132.964 148.425 133.205 148.619 133.502 148.729C133.798 148.839 134.115 148.894 134.454 148.894C134.826 148.894 135.135 148.844 135.381 148.742C135.626 148.632 135.808 148.475 135.927 148.272C136.053 148.061 136.117 147.811 136.117 147.523ZM147.492 137.456V139.931H140.624V137.456H147.492ZM142.35 134.079H145.588V147.18C145.588 147.578 145.63 147.887 145.715 148.107C145.799 148.319 145.922 148.463 146.083 148.539C146.252 148.615 146.455 148.653 146.692 148.653C146.87 148.653 147.039 148.64 147.2 148.615C147.361 148.59 147.479 148.564 147.555 148.539L147.543 151.129C147.297 151.222 147.026 151.298 146.73 151.357C146.434 151.416 146.079 151.446 145.664 151.446C145.004 151.446 144.424 151.319 143.925 151.065C143.434 150.803 143.049 150.38 142.769 149.796C142.49 149.203 142.35 148.429 142.35 147.472V134.079ZM155.858 148.221V141.62C155.858 141.171 155.799 140.816 155.68 140.553C155.57 140.291 155.405 140.101 155.185 139.982C154.965 139.855 154.694 139.792 154.373 139.792C154.026 139.792 153.734 139.864 153.497 140.008C153.26 140.143 153.082 140.342 152.964 140.604C152.854 140.858 152.799 141.159 152.799 141.506H149.536C149.536 140.93 149.65 140.384 149.879 139.868C150.107 139.352 150.437 138.895 150.869 138.497C151.301 138.091 151.821 137.773 152.43 137.545C153.04 137.316 153.721 137.202 154.474 137.202C155.372 137.202 156.167 137.354 156.861 137.659C157.564 137.955 158.114 138.433 158.511 139.094C158.918 139.745 159.121 140.6 159.121 141.658V147.929C159.121 148.632 159.159 149.229 159.235 149.719C159.32 150.21 159.442 150.629 159.603 150.976V151.192H156.302C156.159 150.837 156.049 150.388 155.972 149.846C155.896 149.296 155.858 148.755 155.858 148.221ZM156.277 142.813L156.29 144.844H154.919C154.538 144.844 154.199 144.899 153.903 145.01C153.615 145.12 153.37 145.276 153.167 145.479C152.964 145.682 152.811 145.924 152.71 146.203C152.608 146.482 152.557 146.787 152.557 147.117C152.557 147.498 152.612 147.815 152.722 148.069C152.832 148.315 152.993 148.501 153.205 148.628C153.416 148.746 153.675 148.805 153.979 148.805C154.411 148.805 154.783 148.712 155.096 148.526C155.418 148.34 155.659 148.12 155.82 147.866C155.989 147.604 156.053 147.358 156.01 147.13L156.747 148.45C156.662 148.763 156.531 149.093 156.353 149.44C156.176 149.787 155.947 150.113 155.668 150.418C155.397 150.722 155.063 150.972 154.665 151.167C154.275 151.353 153.814 151.446 153.281 151.446C152.528 151.446 151.846 151.281 151.237 150.951C150.636 150.621 150.162 150.155 149.815 149.554C149.468 148.945 149.295 148.217 149.295 147.371C149.295 146.677 149.409 146.051 149.637 145.492C149.866 144.933 150.2 144.455 150.64 144.057C151.089 143.66 151.656 143.355 152.342 143.143C153.027 142.923 153.831 142.813 154.754 142.813H156.277ZM169.226 137.456H172.184V151.218C172.184 152.462 171.952 153.482 171.486 154.277C171.021 155.073 170.373 155.657 169.544 156.029C168.723 156.41 167.762 156.6 166.662 156.6C166.247 156.6 165.773 156.541 165.24 156.423C164.707 156.304 164.186 156.122 163.678 155.877C163.179 155.631 162.764 155.335 162.434 154.988L163.577 152.728C163.941 153.092 164.389 153.388 164.923 153.617C165.464 153.845 165.989 153.96 166.497 153.96C167.013 153.96 167.449 153.875 167.804 153.706C168.168 153.537 168.443 153.253 168.63 152.855C168.816 152.466 168.909 151.933 168.909 151.256V140.604L169.226 137.456ZM161.52 144.844V143.854C161.52 142.729 161.622 141.751 161.825 140.922C162.037 140.084 162.341 139.39 162.739 138.84C163.145 138.289 163.636 137.879 164.212 137.608C164.787 137.337 165.435 137.202 166.154 137.202C166.899 137.202 167.525 137.363 168.033 137.684C168.541 137.997 168.955 138.442 169.277 139.017C169.599 139.593 169.848 140.278 170.026 141.074C170.204 141.861 170.339 142.729 170.432 143.677V145.098C170.348 146.004 170.2 146.846 169.988 147.625C169.785 148.403 169.51 149.076 169.163 149.643C168.824 150.21 168.405 150.655 167.906 150.976C167.415 151.289 166.823 151.446 166.129 151.446C165.418 151.446 164.774 151.306 164.199 151.027C163.632 150.739 163.145 150.32 162.739 149.77C162.341 149.212 162.037 148.522 161.825 147.701C161.622 146.872 161.52 145.919 161.52 144.844ZM164.783 143.854V144.844C164.783 145.513 164.825 146.093 164.91 146.584C165.003 147.066 165.138 147.464 165.316 147.777C165.502 148.082 165.739 148.31 166.027 148.463C166.315 148.607 166.658 148.678 167.055 148.678C167.597 148.678 168.033 148.552 168.363 148.298C168.693 148.044 168.943 147.697 169.112 147.257C169.281 146.808 169.391 146.3 169.442 145.733V143.054C169.408 142.597 169.336 142.178 169.226 141.798C169.125 141.417 168.977 141.091 168.782 140.82C168.596 140.541 168.359 140.325 168.071 140.173C167.792 140.02 167.462 139.944 167.081 139.944C166.691 139.944 166.349 140.024 166.052 140.185C165.765 140.338 165.528 140.57 165.342 140.884C165.155 141.197 165.016 141.603 164.923 142.102C164.83 142.593 164.783 143.177 164.783 143.854ZM178.24 140.312V151.192H174.99V137.456H178.075L178.24 140.312ZM181.515 137.354L181.49 140.592C181.321 140.558 181.13 140.532 180.919 140.515C180.716 140.498 180.525 140.49 180.347 140.49C179.95 140.49 179.607 140.558 179.319 140.693C179.031 140.829 178.79 141.023 178.595 141.277C178.401 141.531 178.253 141.844 178.151 142.217C178.05 142.58 177.986 142.995 177.961 143.461L177.301 143.346C177.301 142.466 177.368 141.654 177.504 140.909C177.648 140.164 177.855 139.517 178.126 138.967C178.405 138.408 178.748 137.976 179.154 137.672C179.56 137.358 180.026 137.202 180.551 137.202C180.711 137.202 180.885 137.219 181.071 137.253C181.266 137.278 181.414 137.312 181.515 137.354ZM189.247 148.221V141.62C189.247 141.171 189.188 140.816 189.069 140.553C188.959 140.291 188.794 140.101 188.574 139.982C188.354 139.855 188.083 139.792 187.761 139.792C187.414 139.792 187.122 139.864 186.885 140.008C186.649 140.143 186.471 140.342 186.352 140.604C186.242 140.858 186.187 141.159 186.187 141.506H182.925C182.925 140.93 183.039 140.384 183.267 139.868C183.496 139.352 183.826 138.895 184.258 138.497C184.689 138.091 185.21 137.773 185.819 137.545C186.428 137.316 187.11 137.202 187.863 137.202C188.76 137.202 189.556 137.354 190.25 137.659C190.952 137.955 191.502 138.433 191.9 139.094C192.306 139.745 192.51 140.6 192.51 141.658V147.929C192.51 148.632 192.548 149.229 192.624 149.719C192.708 150.21 192.831 150.629 192.992 150.976V151.192H189.691C189.547 150.837 189.437 150.388 189.361 149.846C189.285 149.296 189.247 148.755 189.247 148.221ZM189.666 142.813L189.678 144.844H188.307C187.927 144.844 187.588 144.899 187.292 145.01C187.004 145.12 186.759 145.276 186.555 145.479C186.352 145.682 186.2 145.924 186.098 146.203C185.997 146.482 185.946 146.787 185.946 147.117C185.946 147.498 186.001 147.815 186.111 148.069C186.221 148.315 186.382 148.501 186.594 148.628C186.805 148.746 187.063 148.805 187.368 148.805C187.8 148.805 188.172 148.712 188.485 148.526C188.807 148.34 189.048 148.12 189.209 147.866C189.378 147.604 189.441 147.358 189.399 147.13L190.135 148.45C190.051 148.763 189.92 149.093 189.742 149.44C189.564 149.787 189.336 150.113 189.056 150.418C188.786 150.722 188.451 150.972 188.053 151.167C187.664 151.353 187.203 151.446 186.67 151.446C185.916 151.446 185.235 151.281 184.626 150.951C184.025 150.621 183.551 150.155 183.204 149.554C182.857 148.945 182.683 148.217 182.683 147.371C182.683 146.677 182.798 146.051 183.026 145.492C183.255 144.933 183.589 144.455 184.029 144.057C184.478 143.66 185.045 143.355 185.73 143.143C186.416 142.923 187.22 142.813 188.142 142.813H189.666ZM198.629 140.274V151.192H195.366V137.456H198.413L198.629 140.274ZM198.134 143.842L197.131 143.854C197.122 142.898 197.211 142.013 197.397 141.201C197.583 140.388 197.867 139.686 198.248 139.094C198.629 138.493 199.111 138.027 199.695 137.697C200.279 137.367 200.956 137.202 201.726 137.202C202.226 137.202 202.691 137.295 203.123 137.481C203.554 137.659 203.927 137.942 204.24 138.332C204.562 138.713 204.807 139.212 204.976 139.83C205.154 140.439 205.243 141.171 205.243 142.026V151.192H201.993V142.394C201.993 141.76 201.925 141.269 201.79 140.922C201.663 140.566 201.472 140.316 201.219 140.173C200.973 140.02 200.668 139.944 200.304 139.944C199.924 139.944 199.589 140.046 199.302 140.249C199.022 140.443 198.798 140.723 198.629 141.087C198.459 141.442 198.332 141.857 198.248 142.331C198.163 142.796 198.125 143.3 198.134 143.842ZM204.989 143.27L203.656 143.511C203.639 142.64 203.719 141.823 203.897 141.061C204.083 140.291 204.363 139.618 204.735 139.043C205.108 138.467 205.577 138.019 206.144 137.697C206.711 137.367 207.372 137.202 208.125 137.202C208.692 137.202 209.204 137.295 209.661 137.481C210.126 137.667 210.524 137.968 210.854 138.383C211.184 138.789 211.434 139.322 211.603 139.982C211.781 140.634 211.87 141.429 211.87 142.369V151.192H208.607V142.369C208.607 141.717 208.539 141.218 208.404 140.871C208.269 140.515 208.078 140.274 207.833 140.147C207.587 140.012 207.287 139.944 206.931 139.944C206.61 139.944 206.326 140.033 206.081 140.211C205.844 140.38 205.641 140.617 205.471 140.922C205.311 141.226 205.188 141.578 205.103 141.975C205.027 142.373 204.989 142.805 204.989 143.27Z" fill="white"/>
</svg>
