<svg width="308" height="311" viewBox="0 0 308 311" fill="none" xmlns="http://www.w3.org/2000/svg">
<path d="M4.52357 150.93C3.32385 190.959 17.8707 229.818 44.9639 258.958C72.0572 288.099 109.478 305.133 148.993 306.314C188.508 307.495 226.882 292.726 255.672 265.257C284.462 237.787 301.31 199.866 302.509 159.837L272.384 158.937C271.427 190.872 257.986 221.126 235.017 243.041C212.048 264.957 181.433 276.739 149.908 275.797C118.382 274.855 88.5275 261.265 66.9123 238.017C45.2971 214.768 33.6915 183.766 34.6486 151.831L4.52357 150.93Z" fill="#1D3ADA"/>
<ellipse cx="102.799" cy="102.533" rx="102.799" ry="102.533" transform="matrix(-0.999651 -0.0264246 0.0267059 -0.999643 252.206 270.791)" fill="#E96A5F"/>
<path d="M131.04 184.169V187H123.017V184.169H131.04ZM123.994 168.516V187H120.592V168.516H123.994ZM129.961 176.107V178.862H123.017V176.107H129.961ZM130.989 168.516V171.359H123.017V168.516H130.989ZM139.063 177.732V180.449H133.109V177.732H139.063ZM145.17 176.082V187H141.907V173.264H144.954L145.17 176.082ZM144.675 179.649L143.672 179.662C143.663 178.706 143.752 177.821 143.938 177.009C144.125 176.196 144.408 175.494 144.789 174.901C145.17 174.3 145.652 173.835 146.236 173.505C146.82 173.175 147.497 173.01 148.268 173.01C148.767 173.01 149.232 173.103 149.664 173.289C150.096 173.467 150.468 173.75 150.781 174.14C151.103 174.521 151.348 175.02 151.518 175.638C151.695 176.247 151.784 176.979 151.784 177.834V187H148.534V178.202C148.534 177.567 148.466 177.076 148.331 176.729C148.204 176.374 148.014 176.124 147.76 175.98C147.514 175.828 147.21 175.752 146.846 175.752C146.465 175.752 146.131 175.854 145.843 176.057C145.563 176.251 145.339 176.531 145.17 176.895C145.001 177.25 144.874 177.665 144.789 178.139C144.704 178.604 144.666 179.108 144.675 179.649ZM151.53 179.078L150.197 179.319C150.18 178.448 150.261 177.631 150.438 176.869C150.625 176.099 150.904 175.426 151.276 174.851C151.649 174.275 152.118 173.826 152.686 173.505C153.253 173.175 153.913 173.01 154.666 173.01C155.233 173.01 155.745 173.103 156.202 173.289C156.668 173.475 157.065 173.776 157.396 174.19C157.726 174.597 157.975 175.13 158.145 175.79C158.322 176.442 158.411 177.237 158.411 178.177V187H155.148V178.177C155.148 177.525 155.081 177.026 154.945 176.679C154.81 176.323 154.619 176.082 154.374 175.955C154.129 175.82 153.828 175.752 153.473 175.752C153.151 175.752 152.868 175.841 152.622 176.019C152.385 176.188 152.182 176.425 152.013 176.729C151.852 177.034 151.729 177.385 151.645 177.783C151.568 178.181 151.53 178.613 151.53 179.078ZM167.476 184.029V177.428C167.476 176.979 167.416 176.624 167.298 176.361C167.188 176.099 167.023 175.909 166.803 175.79C166.583 175.663 166.312 175.6 165.99 175.6C165.643 175.6 165.351 175.672 165.114 175.815C164.877 175.951 164.7 176.15 164.581 176.412C164.471 176.666 164.416 176.966 164.416 177.313H161.153C161.153 176.738 161.268 176.192 161.496 175.676C161.725 175.16 162.055 174.702 162.486 174.305C162.918 173.898 163.438 173.581 164.048 173.353C164.657 173.124 165.339 173.01 166.092 173.01C166.989 173.01 167.785 173.162 168.479 173.467C169.181 173.763 169.731 174.241 170.129 174.901C170.535 175.553 170.738 176.408 170.738 177.466V183.737C170.738 184.44 170.776 185.036 170.853 185.527C170.937 186.018 171.06 186.437 171.221 186.784V187H167.92C167.776 186.645 167.666 186.196 167.59 185.654C167.514 185.104 167.476 184.562 167.476 184.029ZM167.895 178.621L167.907 180.652H166.536C166.155 180.652 165.817 180.707 165.521 180.817C165.233 180.927 164.987 181.084 164.784 181.287C164.581 181.49 164.429 181.731 164.327 182.011C164.226 182.29 164.175 182.595 164.175 182.925C164.175 183.306 164.23 183.623 164.34 183.877C164.45 184.122 164.611 184.309 164.822 184.436C165.034 184.554 165.292 184.613 165.597 184.613C166.028 184.613 166.401 184.52 166.714 184.334C167.035 184.148 167.277 183.928 167.438 183.674C167.607 183.411 167.67 183.166 167.628 182.938L168.364 184.258C168.28 184.571 168.148 184.901 167.971 185.248C167.793 185.595 167.564 185.921 167.285 186.226C167.014 186.53 166.68 186.78 166.282 186.975C165.893 187.161 165.432 187.254 164.898 187.254C164.145 187.254 163.464 187.089 162.854 186.759C162.254 186.429 161.78 185.963 161.433 185.362C161.086 184.753 160.912 184.025 160.912 183.179C160.912 182.485 161.026 181.858 161.255 181.3C161.483 180.741 161.818 180.263 162.258 179.865C162.706 179.467 163.273 179.163 163.959 178.951C164.645 178.731 165.449 178.621 166.371 178.621H167.895ZM177.01 173.264V187H173.747V173.264H177.01ZM173.582 169.684C173.582 169.167 173.743 168.744 174.064 168.414C174.386 168.076 174.826 167.906 175.385 167.906C175.943 167.906 176.379 168.076 176.692 168.414C177.006 168.744 177.162 169.167 177.162 169.684C177.162 170.191 177.006 170.615 176.692 170.953C176.379 171.283 175.943 171.448 175.385 171.448C174.826 171.448 174.386 171.283 174.064 170.953C173.743 170.615 173.582 170.191 173.582 169.684ZM183.434 167.5V187H180.171V167.5H183.434Z" fill="white"/>
</svg>
