<svg width="610" height="620" viewBox="0 0 610 620" fill="none" xmlns="http://www.w3.org/2000/svg">
<path d="M609.084 311.002C609.292 247.852 590.544 186.144 555.349 134.137C520.154 82.1302 470.191 42.3053 412.147 19.9927C354.104 -2.31991 290.749 -6.05566 230.562 9.28542C170.375 24.6265 116.227 58.3125 75.3663 105.835C34.5054 153.357 8.8807 212.449 1.92173 275.2C-5.03725 337.952 7.00154 401.37 36.4268 456.966C65.8522 512.563 111.26 557.685 166.573 586.294C221.886 614.903 284.465 625.634 345.935 617.051L337.566 554.96C288.525 561.809 238.599 553.247 194.469 530.423C150.34 507.598 114.113 471.599 90.6375 427.244C67.1618 382.888 57.5571 332.293 63.109 282.229C68.661 232.165 89.1046 185.022 121.704 147.108C154.303 109.194 197.502 82.3192 245.52 70.0799C293.538 57.8407 344.083 60.8211 390.391 78.6223C436.698 96.4235 476.559 128.196 504.638 169.688C532.717 211.179 547.674 260.41 547.508 310.792L609.084 311.002Z" fill="#1D3ADA"/>
</svg>
